# xmcd
#
# Track frame offsets:
# 150
# 19347
# 35564
# 52262
# 65468
# 85111
# 101453
# 112388
# 120069
# 139100
# 146679
# 162367
# 187693
# 208298
# 222447
# 245814
# 270664
# 283255
# 304975
#
# Disc length: 4315 seconds
#
#
# Revision: 0
# Processed by: cddbd v1.5.2PL0 Copyright (c) Steve Scherf et al.
# Submitted via: FreeRIP 2.12 
#
DISCID=2b10d913
DTITLE=j.carreras   t.berganza - wel mundo fantastico de las zarzuelas
DYEAR=2007
DGENRE=Folk
TTITLE0=noche de amor  jose carreras
TTITLE1=romanza de encarnacion   teresa berganza
TTITLE2=de este apacible rincon de madrid   j.carreras
TTITLE3=cancion de la paloma  teresa berganza
TTITLE4=jotsa de la bruja     jose carreras
TTITLE5=tango de menegilda de la gran via  t.berganza
TTITLE6=guajira de la alegria del batallon  j.carreras
TTITLE7=cancion de la gitana    teresa berganza
TTITLE8=cuantas veces solo  los de aragon  j.carreras
TTITLE9=zapateado  de la tempranica   t.berganza
TTITLE10=raquel  el huesped del sevillano  j.carreras
TTITLE11=de españavengo de el niño judio t.bergaqnza
TTITLE12=por el humo se sabe  doña francisquita
TTITLE13=habanera  del el año pasado    t.berganza
TTITLE14=romanza de el caserio  jose carreras
TTITLE15=romanza de socorro  el barqukillero  t.berganza
TTITLE16=cancion gitana  el baile de luis alonso  berganza
TTITLE17=paxarin tu que vuelas  la picara molinera
TTITLE18=vuelven las olas lejanas  los de aragon
EXTD=
EXTT0=soutullo
EXTT1=soutullo
EXTT2=de luisa fernanda  moreno
EXTT3=el barberillo de lavapies
EXTT4=chapi
EXTT5=chueca valverdde
EXTT6=serrano
EXTT7=serrano
EXTT8=serrano
EXTT9=romea
EXTT10=guerrero
EXTT11=alvarez luna
EXTT12=j.carreras
EXTT13=valverde
EXTT14=guiridi
EXTT15=chapi
EXTT16=de bukrgos
EXTT17=j.carreras
EXTT18=teresa berganza
PLAYORDER=
